<svg version="1.1" xmlns="http://www.w3.org/2000/svg" xmlns:xlink="http://www.w3.org/1999/xlink" xmlns:a="http://ns.adobe.com/AdobeSVGViewerExtensions/3.0/" x="0px" y="0px" width="45.21px" height="36.49px" viewBox="0 0 45.21 36.49" style="enable-background:new 0 0 45.21 36.49;" xml:space="preserve">
  <style type="text/css">
    .st0{opacity:0.5;fill:#FFFFFF;}
    .st1{fill:#FFFFFF;}
  </style>
  <polygon class="st0" points="19.77,5.49 37.77,2.32 38.33,5.49 40.36,5.49 39.39,0 8.26,5.49 "></polygon>
  <polygon class="st0" points="4.21,19.3 2.32,8.57 4.21,8.23 4.21,6.49 4.21,6.2 0,6.95 4.21,30.82 "></polygon>
  <g>
    <path class="st1" d="M43.21,8.49v26h-36v-26H43.21 M45.21,6.49h-40v30h40V6.49L45.21,6.49z"></path>
  </g>
  <path class="st1" d="M41.21,27.59l-7.38-8.07c-0.17-0.18-0.44-0.18-0.6,0l-4.5,4.92l-8.98-9.82c-0.17-0.18-0.44-0.18-0.6,0
    L9.21,25.49v7h32V27.59z"></path>
</svg>
